<?xml version="1.0"?>
<svg width="512.00" height="176.00"
     viewBox="-16.00 -16.00 605.09 208.00"
     xmlns="http://www.w3.org/2000/svg"
     xmlns:xlink="http://www.w3.org/1999/xlink">
<defs>
<clipPath id="clipProposal0" ><rect x="0.00" y="0.00" width="573.09" height="48.00" /></clipPath>
<clipPath id="clipProposal1" ><rect x="0.00" y="64.00" width="573.09" height="48.00" /></clipPath>
<clipPath id="clipProposal2" ><rect x="0.00" y="128.00" width="573.09" height="48.00" /></clipPath>
<pattern id="merit_pattern_nothing" x="0.00" y="0.00" width="1000.00" height="1000.00" patternUnits="userSpaceOnUse" >
</pattern>
<pattern id="merit_pattern_hexagons_1" x="0.00" y="0.00" width="13.86" height="16.00" patternUnits="userSpaceOnUse" >
<path d="M6.93 6.00 L5.20 7.00 L5.20 9.00 L6.93 10.00 L8.66 9.00 L8.66 7.00 ZM13.86 -2.00 L12.12 -1.00 L12.12 1.00 L13.86 2.00 L15.59 1.00 L15.59 -1.00 ZM0.00 -2.00 L-1.73 -1.00 L-1.73 1.00 L0.00 2.00 L1.73 1.00 L1.73 -1.00 ZM13.86 14.00 L12.12 15.00 L12.12 17.00 L13.86 18.00 L15.59 17.00 L15.59 15.00 ZM0.00 14.00 L-1.73 15.00 L-1.73 17.00 L0.00 18.00 L1.73 17.00 L1.73 15.00 Z" stroke="#000000" stroke-opacity="0.380" stroke-width="0.8" fill="none" />
</pattern>
<pattern id="merit_pattern_hexagons_2" x="0.00" y="0.00" width="13.86" height="16.00" patternUnits="userSpaceOnUse" >
<path d="M6.93 4.00 L3.46 6.00 L3.46 10.00 L6.93 12.00 L10.39 10.00 L10.39 6.00 ZM13.86 -4.00 L10.39 -2.00 L10.39 2.00 L13.86 4.00 L17.32 2.00 L17.32 -2.00 ZM0.00 -4.00 L-3.46 -2.00 L-3.46 2.00 L0.00 4.00 L3.46 2.00 L3.46 -2.00 ZM13.86 12.00 L10.39 14.00 L10.39 18.00 L13.86 20.00 L17.32 18.00 L17.32 14.00 ZM0.00 12.00 L-3.46 14.00 L-3.46 18.00 L0.00 20.00 L3.46 18.00 L3.46 14.00 Z" stroke="#000000" stroke-opacity="0.380" stroke-width="0.8" fill="none" />
</pattern>
<filter id="merit_filter_clean_outline" >
<feMorphology in="SourceAlpha" result="DILATED"  operator="dilate" radius="2 2" />
<feFlood result="COLOR"  flood-color="#ffffff" flood-opacity="1" />
<feComposite in="COLOR" in2="DILATED" result="OUTLINE"  operator="in" k1="0" k2="0" k3="0" k4="0" />
<feDropShadow in="OUTLINE" result="SHADOWED_OUTLINE" dx="0.618000" dy="1.000000" stdDeviation="0.5" flood-color="#000000" flood-opacity="1.000" />
<feMerge>
<feMergeNode in="SHADOWED_OUTLINE"/>
<feMergeNode in="SourceGraphic"/>
</feMerge>
</filter>
<filter id="merit_filter_blurry_outline" filterUnits="userSpaceOnUse" >
<feDropShadow dx="-1" dy="-1" stdDeviation="0.5" flood-color="#ffffff" flood-opacity="0.784" />
<feDropShadow dx="-1" dy="1" stdDeviation="0.5" flood-color="#ffffff" flood-opacity="0.784" />
<feDropShadow dx="1" dy="-1" stdDeviation="0.5" flood-color="#ffffff" flood-opacity="0.784" />
<feDropShadow dx="1" dy="1" stdDeviation="0.5" flood-color="#ffffff" flood-opacity="0.784" />
</filter>
</defs>
<rect x="-16.00" y="-16.00" width="605.09" height="208.00" rx="12.00" ry="12.00" fill="#ffffff" fill-opacity="1.000" />
<rect x="0.00" y="0.00" width="141.27" height="48.00" rx="6.00" ry="6.00" fill="#df3222" fill-opacity="1.000" />
<rect x="0.00" y="0.00" width="141.27" height="48.00" rx="6.00" ry="6.00" fill="url(#merit_pattern_nothing)" />
<text x="70.64" y="48.00" fill="#000000" fill-opacity="1.000" stroke="none" font-size="0.88em" font-family="Noto Sans, Arial, Helvetica, sans-serif" text-anchor="middle" dominant-baseline="middle" filter="url(#merit_filter_clean_outline)" >5</text>
<rect x="145.27" y="0.00" width="110.62" height="48.00" rx="6.00" ry="6.00" fill="#fab001" fill-opacity="1.000" />
<rect x="145.27" y="0.00" width="110.62" height="48.00" rx="6.00" ry="6.00" fill="url(#merit_pattern_hexagons_1)" />
<text x="200.58" y="48.00" fill="#000000" fill-opacity="1.000" stroke="none" font-size="0.88em" font-family="Noto Sans, Arial, Helvetica, sans-serif" text-anchor="middle" dominant-baseline="middle" filter="url(#merit_filter_clean_outline)" >4</text>
<rect x="259.89" y="0.00" width="313.20" height="48.00" rx="6.00" ry="6.00" fill="#00a249" fill-opacity="1.000" />
<rect x="259.89" y="0.00" width="313.20" height="48.00" rx="6.00" ry="6.00" fill="url(#merit_pattern_hexagons_2)" />
<text x="416.49" y="48.00" fill="#000000" fill-opacity="1.000" stroke="none" font-size="0.88em" font-family="Noto Sans, Arial, Helvetica, sans-serif" text-anchor="middle" dominant-baseline="middle" filter="url(#merit_filter_clean_outline)" >11</text>
<line x1="286.55" y1="0.00" x2="286.55" y2="48.00" stroke="#010101" stroke-width="4" stroke-dasharray="6.472 4" filter="url(#merit_filter_blurry_outline)" />
<text x="16.00" y="24.00" style="clip-path: url(#clipProposal0)" stroke="#000000" stroke-opacity="1.000" fill="#000000" fill-opacity="1.000" font-size="1.618em" font-family="Noto Sans, Arial, Helvetica, sans-serif" dominant-baseline="middle" filter="url(#merit_filter_clean_outline)" >Pizza 4 Dimensions<title>Pizza 4 Dimensions</title></text>
<rect x="0.00" y="64.00" width="255.89" height="48.00" rx="6.00" ry="6.00" fill="#df3222" fill-opacity="1.000" />
<rect x="0.00" y="64.00" width="255.89" height="48.00" rx="6.00" ry="6.00" fill="url(#merit_pattern_nothing)" />
<text x="127.95" y="112.00" fill="#000000" fill-opacity="1.000" stroke="none" font-size="0.88em" font-family="Noto Sans, Arial, Helvetica, sans-serif" text-anchor="middle" dominant-baseline="middle" filter="url(#merit_filter_clean_outline)" >9</text>
<rect x="259.89" y="64.00" width="139.27" height="48.00" rx="6.00" ry="6.00" fill="#fab001" fill-opacity="1.000" />
<rect x="259.89" y="64.00" width="139.27" height="48.00" rx="6.00" ry="6.00" fill="url(#merit_pattern_hexagons_1)" />
<text x="329.53" y="112.00" fill="#000000" fill-opacity="1.000" stroke="none" font-size="0.88em" font-family="Noto Sans, Arial, Helvetica, sans-serif" text-anchor="middle" dominant-baseline="middle" filter="url(#merit_filter_clean_outline)" >5</text>
<rect x="403.16" y="64.00" width="169.93" height="48.00" rx="6.00" ry="6.00" fill="#00a249" fill-opacity="1.000" />
<rect x="403.16" y="64.00" width="169.93" height="48.00" rx="6.00" ry="6.00" fill="url(#merit_pattern_hexagons_2)" />
<text x="488.13" y="112.00" fill="#000000" fill-opacity="1.000" stroke="none" font-size="0.88em" font-family="Noto Sans, Arial, Helvetica, sans-serif" text-anchor="middle" dominant-baseline="middle" filter="url(#merit_filter_clean_outline)" >6</text>
<line x1="286.55" y1="64.00" x2="286.55" y2="112.00" stroke="#010101" stroke-width="4" stroke-dasharray="6.472 4" filter="url(#merit_filter_blurry_outline)" />
<text x="16.00" y="88.00" style="clip-path: url(#clipProposal1)" stroke="#000000" stroke-opacity="1.000" fill="#000000" fill-opacity="1.000" font-size="1.618em" font-family="Noto Sans, Arial, Helvetica, sans-serif" dominant-baseline="middle" filter="url(#merit_filter_clean_outline)" >Lasagnes Assange<title>Lasagnes Assange</title></text>
<rect x="0.00" y="128.00" width="399.16" height="48.00" rx="6.00" ry="6.00" fill="#df3222" fill-opacity="1.000" />
<rect x="0.00" y="128.00" width="399.16" height="48.00" rx="6.00" ry="6.00" fill="url(#merit_pattern_nothing)" />
<text x="199.58" y="176.00" fill="#000000" fill-opacity="1.000" stroke="none" font-size="0.88em" font-family="Noto Sans, Arial, Helvetica, sans-serif" text-anchor="middle" dominant-baseline="middle" filter="url(#merit_filter_clean_outline)" >14</text>
<rect x="403.16" y="128.00" width="169.93" height="48.00" rx="6.00" ry="6.00" fill="#00a249" fill-opacity="1.000" />
<rect x="403.16" y="128.00" width="169.93" height="48.00" rx="6.00" ry="6.00" fill="url(#merit_pattern_hexagons_2)" />
<text x="488.13" y="176.00" fill="#000000" fill-opacity="1.000" stroke="none" font-size="0.88em" font-family="Noto Sans, Arial, Helvetica, sans-serif" text-anchor="middle" dominant-baseline="middle" filter="url(#merit_filter_clean_outline)" >6</text>
<line x1="286.55" y1="128.00" x2="286.55" y2="176.00" stroke="#010101" stroke-width="4" stroke-dasharray="6.472 4" filter="url(#merit_filter_blurry_outline)" />
<text x="16.00" y="152.00" style="clip-path: url(#clipProposal2)" stroke="#000000" stroke-opacity="1.000" fill="#000000" fill-opacity="1.000" font-size="1.618em" font-family="Noto Sans, Arial, Helvetica, sans-serif" dominant-baseline="middle" filter="url(#merit_filter_clean_outline)" >Jurassique Pâtes<title>Jurassique Pâtes</title></text>
</svg>