<?xml version="1.0" encoding="UTF-8"?>
<svg width="800.00" height="400.00"
     viewBox="-32.00 -32.00 864.00 464.00"
     xmlns="http://www.w3.org/2000/svg"
     xmlns:xlink="http://www.w3.org/1999/xlink">
<defs>
<clipPath id="clipProposal0" ><rect x="0.00" y="0.00" width="800.00" height="76.00" />
</clipPath>
<clipPath id="clipProposal1" ><rect x="0.00" y="108.00" width="800.00" height="76.00" />
</clipPath>
<clipPath id="clipProposal2" ><rect x="0.00" y="216.00" width="800.00" height="76.00" />
</clipPath>
<clipPath id="clipProposal3" ><rect x="0.00" y="324.00" width="800.00" height="76.00" />
</clipPath>
<pattern id="merit_pattern_nothing" x="0.00" y="0.00" width="1000.00" height="1000.00" patternUnits="userSpaceOnUse" >
</pattern>
<pattern id="merit_pattern_hexagons_1" x="0.00" y="0.00" width="13.86" height="16.00" patternUnits="userSpaceOnUse" >
<path d="M6.93 6.00 L5.20 7.00 L5.20 9.00 L6.93 10.00 L8.66 9.00 L8.66 7.00 ZM13.86 -2.00 L12.12 -1.00 L12.12 1.00 L13.86 2.00 L15.59 1.00 L15.59 -1.00 ZM0.00 -2.00 L-1.73 -1.00 L-1.73 1.00 L0.00 2.00 L1.73 1.00 L1.73 -1.00 ZM13.86 14.00 L12.12 15.00 L12.12 17.00 L13.86 18.00 L15.59 17.00 L15.59 15.00 ZM0.00 14.00 L-1.73 15.00 L-1.73 17.00 L0.00 18.00 L1.73 17.00 L1.73 15.00 Z" stroke="#000000" stroke-opacity="0.380" stroke-width="0.8" fill="none" />
</pattern>
<pattern id="merit_pattern_hexagons_2" x="0.00" y="0.00" width="13.86" height="16.00" patternUnits="userSpaceOnUse" >
<path d="M6.93 4.00 L3.46 6.00 L3.46 10.00 L6.93 12.00 L10.39 10.00 L10.39 6.00 ZM13.86 -4.00 L10.39 -2.00 L10.39 2.00 L13.86 4.00 L17.32 2.00 L17.32 -2.00 ZM0.00 -4.00 L-3.46 -2.00 L-3.46 2.00 L0.00 4.00 L3.46 2.00 L3.46 -2.00 ZM13.86 12.00 L10.39 14.00 L10.39 18.00 L13.86 20.00 L17.32 18.00 L17.32 14.00 ZM0.00 12.00 L-3.46 14.00 L-3.46 18.00 L0.00 20.00 L3.46 18.00 L3.46 14.00 Z" stroke="#000000" stroke-opacity="0.380" stroke-width="0.8" fill="none" />
</pattern>
<pattern id="merit_pattern_hexagons_3" x="0.00" y="0.00" width="13.86" height="16.00" patternUnits="userSpaceOnUse" >
<path d="M6.93 2.00 L1.73 5.00 L1.73 11.00 L6.93 14.00 L12.12 11.00 L12.12 5.00 ZM13.86 -6.00 L8.66 -3.00 L8.66 3.00 L13.86 6.00 L19.05 3.00 L19.05 -3.00 ZM0.00 -6.00 L-5.20 -3.00 L-5.20 3.00 L0.00 6.00 L5.20 3.00 L5.20 -3.00 ZM13.86 10.00 L8.66 13.00 L8.66 19.00 L13.86 22.00 L19.05 19.00 L19.05 13.00 ZM0.00 10.00 L-5.20 13.00 L-5.20 19.00 L0.00 22.00 L5.20 19.00 L5.20 13.00 Z" stroke="#000000" stroke-opacity="0.380" stroke-width="0.8" fill="none" />
</pattern>
<pattern id="merit_pattern_hexagons_4" x="0.00" y="0.00" width="13.86" height="16.00" patternUnits="userSpaceOnUse" >
<path d="M6.93 0.00 L0.00 4.00 L0.00 12.00 L6.93 16.00 L13.86 12.00 L13.86 4.00 ZM13.86 -8.00 L6.93 -4.00 L6.93 4.00 L13.86 8.00 L20.78 4.00 L20.78 -4.00 ZM0.00 -8.00 L-6.93 -4.00 L-6.93 4.00 L0.00 8.00 L6.93 4.00 L6.93 -4.00 ZM13.86 8.00 L6.93 12.00 L6.93 20.00 L13.86 24.00 L20.78 20.00 L20.78 12.00 ZM0.00 8.00 L-6.93 12.00 L-6.93 20.00 L0.00 24.00 L6.93 20.00 L6.93 12.00 Z" stroke="#000000" stroke-opacity="0.380" stroke-width="0.8" fill="none" />
</pattern>
<pattern id="merit_pattern_hexagons_5" x="0.00" y="0.00" width="13.86" height="16.00" patternUnits="userSpaceOnUse" >
<path d="M6.93 -2.00 L-1.73 3.00 L-1.73 13.00 L6.93 18.00 L15.59 13.00 L15.59 3.00 ZM13.86 -10.00 L5.20 -5.00 L5.20 5.00 L13.86 10.00 L22.52 5.00 L22.52 -5.00 ZM0.00 -10.00 L-8.66 -5.00 L-8.66 5.00 L0.00 10.00 L8.66 5.00 L8.66 -5.00 ZM13.86 6.00 L5.20 11.00 L5.20 21.00 L13.86 26.00 L22.52 21.00 L22.52 11.00 ZM0.00 6.00 L-8.66 11.00 L-8.66 21.00 L0.00 26.00 L8.66 21.00 L8.66 11.00 Z" stroke="#000000" stroke-opacity="0.380" stroke-width="0.8" fill="none" />
</pattern>
<pattern id="merit_pattern_hexagons_6" x="0.00" y="0.00" width="13.86" height="16.00" patternUnits="userSpaceOnUse" >
<path d="M6.93 -4.00 L-3.46 2.00 L-3.46 14.00 L6.93 20.00 L17.32 14.00 L17.32 2.00 ZM13.86 -12.00 L3.46 -6.00 L3.46 6.00 L13.86 12.00 L24.25 6.00 L24.25 -6.00 ZM0.00 -12.00 L-10.39 -6.00 L-10.39 6.00 L0.00 12.00 L10.39 6.00 L10.39 -6.00 ZM13.86 4.00 L3.46 10.00 L3.46 22.00 L13.86 28.00 L24.25 22.00 L24.25 10.00 ZM0.00 4.00 L-10.39 10.00 L-10.39 22.00 L0.00 28.00 L10.39 22.00 L10.39 10.00 Z" stroke="#000000" stroke-opacity="0.380" stroke-width="0.8" fill="none" />
</pattern>
<filter id="merit_filter_blurry_outline" filterUnits="userSpaceOnUse" >
<feDropShadow dx="-1" dy="-1" stdDeviation="1" flood-color="#ffff00" flood-opacity="0.471" />
<feDropShadow dx="-1" dy="1" stdDeviation="1" flood-color="#ffff00" flood-opacity="0.471" />
<feDropShadow dx="1" dy="-1" stdDeviation="1" flood-color="#ffff00" flood-opacity="0.471" />
<feDropShadow dx="1" dy="1" stdDeviation="1" flood-color="#ffff00" flood-opacity="0.471" />
</filter>
</defs>
<rect x="-32.00" y="-32.00" width="864.00" height="464.00" rx="12.00" ry="12.00" fill="#1e1405" fill-opacity="0.502" />
<rect x="0.00" y="0.00" width="156.00" height="76.00" rx="6.00" ry="6.00" fill="#000000" fill-opacity="1.000" />
<rect x="0.00" y="0.00" width="156.00" height="76.00" rx="6.00" ry="6.00" fill="url(#merit_pattern_nothing)" />
<rect x="164.00" y="0.00" width="192.00" height="76.00" rx="6.00" ry="6.00" fill="#494949" fill-opacity="1.000" />
<rect x="164.00" y="0.00" width="192.00" height="76.00" rx="6.00" ry="6.00" fill="url(#merit_pattern_hexagons_2)" />
<rect x="364.00" y="0.00" width="172.00" height="76.00" rx="6.00" ry="6.00" fill="#929292" fill-opacity="1.000" />
<rect x="364.00" y="0.00" width="172.00" height="76.00" rx="6.00" ry="6.00" fill="url(#merit_pattern_hexagons_4)" />
<rect x="544.00" y="0.00" width="112.00" height="76.00" rx="6.00" ry="6.00" fill="#dbdbdb" fill-opacity="1.000" />
<rect x="544.00" y="0.00" width="112.00" height="76.00" rx="6.00" ry="6.00" fill="url(#merit_pattern_hexagons_5)" />
<rect x="664.00" y="0.00" width="136.00" height="76.00" rx="6.00" ry="6.00" fill="#ffffff" fill-opacity="1.000" />
<rect x="664.00" y="0.00" width="136.00" height="76.00" rx="6.00" ry="6.00" fill="url(#merit_pattern_hexagons_6)" />
<line x1="400.00" y1="0.00" x2="400.00" y2="76.00" stroke="#3232ff" stroke-width="4" stroke-dasharray="6.472 4" filter="url(#merit_filter_blurry_outline)" />
<text x="16.00" y="38.00" style="clip-path: url(#clipProposal0)" stroke="#141414" stroke-opacity="0.588" stroke-width="5" fill="#141414" fill-opacity="0.588" font-size="1.4em" font-family="Noto Sans, Arial, Helvetica, sans-serif" dominant-baseline="middle" >Une promenade sur la face cachée de la Lune</text>
<text x="16.00" y="38.00" style="clip-path: url(#clipProposal0)" stroke="#dcc8c8" stroke-opacity="0.784" fill="#dcc8c8" fill-opacity="0.784" font-size="1.4em" font-family="Noto Sans, Arial, Helvetica, sans-serif" dominant-baseline="middle" >Une promenade sur la face cachée de la Lune<title>Une promenade sur la face cachée de la Lune</title>
</text>
<rect x="0.00" y="108.00" width="96.00" height="76.00" rx="6.00" ry="6.00" fill="#000000" fill-opacity="1.000" />
<rect x="0.00" y="108.00" width="96.00" height="76.00" rx="6.00" ry="6.00" fill="url(#merit_pattern_nothing)" />
<rect x="104.00" y="108.00" width="72.00" height="76.00" rx="6.00" ry="6.00" fill="#242424" fill-opacity="1.000" />
<rect x="104.00" y="108.00" width="72.00" height="76.00" rx="6.00" ry="6.00" fill="url(#merit_pattern_hexagons_1)" />
<rect x="184.00" y="108.00" width="192.00" height="76.00" rx="6.00" ry="6.00" fill="#494949" fill-opacity="1.000" />
<rect x="184.00" y="108.00" width="192.00" height="76.00" rx="6.00" ry="6.00" fill="url(#merit_pattern_hexagons_2)" />
<rect x="384.00" y="108.00" width="92.00" height="76.00" rx="6.00" ry="6.00" fill="#6d6d6d" fill-opacity="1.000" />
<rect x="384.00" y="108.00" width="92.00" height="76.00" rx="6.00" ry="6.00" fill="url(#merit_pattern_hexagons_3)" />
<rect x="484.00" y="108.00" width="92.00" height="76.00" rx="6.00" ry="6.00" fill="#929292" fill-opacity="1.000" />
<rect x="484.00" y="108.00" width="92.00" height="76.00" rx="6.00" ry="6.00" fill="url(#merit_pattern_hexagons_4)" />
<rect x="584.00" y="108.00" width="52.00" height="76.00" rx="6.00" ry="6.00" fill="#dbdbdb" fill-opacity="1.000" />
<rect x="584.00" y="108.00" width="52.00" height="76.00" rx="6.00" ry="6.00" fill="url(#merit_pattern_hexagons_5)" />
<rect x="644.00" y="108.00" width="156.00" height="76.00" rx="6.00" ry="6.00" fill="#ffffff" fill-opacity="1.000" />
<rect x="644.00" y="108.00" width="156.00" height="76.00" rx="6.00" ry="6.00" fill="url(#merit_pattern_hexagons_6)" />
<line x1="400.00" y1="108.00" x2="400.00" y2="184.00" stroke="#3232ff" stroke-width="4" stroke-dasharray="6.472 4" filter="url(#merit_filter_blurry_outline)" />
<text x="16.00" y="146.00" style="clip-path: url(#clipProposal1)" stroke="#141414" stroke-opacity="0.588" stroke-width="5" fill="#141414" fill-opacity="0.588" font-size="1.4em" font-family="Noto Sans, Arial, Helvetica, sans-serif" dominant-baseline="middle" >Une randonnée dans les monts de la Chartreuse</text>
<text x="16.00" y="146.00" style="clip-path: url(#clipProposal1)" stroke="#dcc8c8" stroke-opacity="0.784" fill="#dcc8c8" fill-opacity="0.784" font-size="1.4em" font-family="Noto Sans, Arial, Helvetica, sans-serif" dominant-baseline="middle" >Une randonnée dans les monts de la Chartreuse<title>Une randonnée dans les monts de la Chartreuse</title>
</text>
<rect x="0.00" y="216.00" width="376.00" height="76.00" rx="6.00" ry="6.00" fill="#000000" fill-opacity="1.000" />
<rect x="0.00" y="216.00" width="376.00" height="76.00" rx="6.00" ry="6.00" fill="url(#merit_pattern_nothing)" />
<rect x="384.00" y="216.00" width="92.00" height="76.00" rx="6.00" ry="6.00" fill="#242424" fill-opacity="1.000" />
<rect x="384.00" y="216.00" width="92.00" height="76.00" rx="6.00" ry="6.00" fill="url(#merit_pattern_hexagons_1)" />
<rect x="484.00" y="216.00" width="152.00" height="76.00" rx="6.00" ry="6.00" fill="#494949" fill-opacity="1.000" />
<rect x="484.00" y="216.00" width="152.00" height="76.00" rx="6.00" ry="6.00" fill="url(#merit_pattern_hexagons_2)" />
<rect x="644.00" y="216.00" width="52.00" height="76.00" rx="6.00" ry="6.00" fill="#6d6d6d" fill-opacity="1.000" />
<rect x="644.00" y="216.00" width="52.00" height="76.00" rx="6.00" ry="6.00" fill="url(#merit_pattern_hexagons_3)" />
<rect x="704.00" y="216.00" width="52.00" height="76.00" rx="6.00" ry="6.00" fill="#dbdbdb" fill-opacity="1.000" />
<rect x="704.00" y="216.00" width="52.00" height="76.00" rx="6.00" ry="6.00" fill="url(#merit_pattern_hexagons_5)" />
<rect x="764.00" y="216.00" width="36.00" height="76.00" rx="6.00" ry="6.00" fill="#ffffff" fill-opacity="1.000" />
<rect x="764.00" y="216.00" width="36.00" height="76.00" rx="6.00" ry="6.00" fill="url(#merit_pattern_hexagons_6)" />
<line x1="400.00" y1="216.00" x2="400.00" y2="292.00" stroke="#3232ff" stroke-width="4" stroke-dasharray="6.472 4" filter="url(#merit_filter_blurry_outline)" />
<text x="16.00" y="254.00" style="clip-path: url(#clipProposal2)" stroke="#141414" stroke-opacity="0.588" stroke-width="5" fill="#141414" fill-opacity="0.588" font-size="1.4em" font-family="Noto Sans, Arial, Helvetica, sans-serif" dominant-baseline="middle" >Un crossfit dans les égoûts de Paris</text>
<text x="16.00" y="254.00" style="clip-path: url(#clipProposal2)" stroke="#dcc8c8" stroke-opacity="0.784" fill="#dcc8c8" fill-opacity="0.784" font-size="1.4em" font-family="Noto Sans, Arial, Helvetica, sans-serif" dominant-baseline="middle" >Un crossfit dans les égoûts de Paris<title>Un crossfit dans les égoûts de Paris</title>
</text>
<rect x="0.00" y="324.00" width="756.00" height="76.00" rx="6.00" ry="6.00" fill="#000000" fill-opacity="1.000" />
<rect x="0.00" y="324.00" width="756.00" height="76.00" rx="6.00" ry="6.00" fill="url(#merit_pattern_nothing)" />
<rect x="764.00" y="324.00" width="36.00" height="76.00" rx="6.00" ry="6.00" fill="#ffffff" fill-opacity="1.000" />
<rect x="764.00" y="324.00" width="36.00" height="76.00" rx="6.00" ry="6.00" fill="url(#merit_pattern_hexagons_6)" />
<line x1="400.00" y1="324.00" x2="400.00" y2="400.00" stroke="#3232ff" stroke-width="4" stroke-dasharray="6.472 4" filter="url(#merit_filter_blurry_outline)" />
<text x="16.00" y="362.00" style="clip-path: url(#clipProposal3)" stroke="#141414" stroke-opacity="0.588" stroke-width="5" fill="#141414" fill-opacity="0.588" font-size="1.4em" font-family="Noto Sans, Arial, Helvetica, sans-serif" dominant-baseline="middle" >Une baignade sur une plage nudiste avec Patrick Bruel, Morandini et Depardieu</text>
<text x="16.00" y="362.00" style="clip-path: url(#clipProposal3)" stroke="#dcc8c8" stroke-opacity="0.784" fill="#dcc8c8" fill-opacity="0.784" font-size="1.4em" font-family="Noto Sans, Arial, Helvetica, sans-serif" dominant-baseline="middle" >Une baignade sur une plage nudiste avec Patrick Bruel, Morandini et Depardieu<title>Une baignade sur une plage nudiste avec Patrick Bruel, Morandini et Depardieu</title>
</text>
</svg>
