<?xml version="1.0"?>
<svg width="800.00" height="400.00"
     viewBox="-32.00 -32.00 800.00 400.00"
     xmlns="http://www.w3.org/2000/svg">
<defs>
<clipPath id="clipProposal0" ><rect x="0.00" y="0.00" width="736.00" height="60.00" /></clipPath>
<clipPath id="clipProposal1" ><rect x="0.00" y="92.00" width="736.00" height="60.00" /></clipPath>
<clipPath id="clipProposal2" ><rect x="0.00" y="184.00" width="736.00" height="60.00" /></clipPath>
<clipPath id="clipProposal3" ><rect x="0.00" y="276.00" width="736.00" height="60.00" /></clipPath>
<pattern id="merit_pattern_nothing" x="0.00" y="0.00" width="1000.00" height="1000.00" patternUnits="userSpaceOnUse" >
</pattern>
<pattern id="merit_pattern_hexagons_1" x="0.00" y="0.00" width="13.86" height="16.00" patternUnits="userSpaceOnUse" >
<path d="M6.93 6.00 L5.20 7.00 L5.20 9.00 L6.93 10.00 L8.66 9.00 L8.66 7.00 ZM13.86 -2.00 L12.12 -1.00 L12.12 1.00 L13.86 2.00 L15.59 1.00 L15.59 -1.00 ZM0.00 -2.00 L-1.73 -1.00 L-1.73 1.00 L0.00 2.00 L1.73 1.00 L1.73 -1.00 ZM13.86 14.00 L12.12 15.00 L12.12 17.00 L13.86 18.00 L15.59 17.00 L15.59 15.00 ZM0.00 14.00 L-1.73 15.00 L-1.73 17.00 L0.00 18.00 L1.73 17.00 L1.73 15.00 Z" stroke="#2400ff" stroke-opacity="0.706" stroke-width="0.8" fill="none" />
</pattern>
<pattern id="merit_pattern_hexagons_2" x="0.00" y="0.00" width="13.86" height="16.00" patternUnits="userSpaceOnUse" >
<path d="M6.93 4.00 L3.46 6.00 L3.46 10.00 L6.93 12.00 L10.39 10.00 L10.39 6.00 ZM13.86 -4.00 L10.39 -2.00 L10.39 2.00 L13.86 4.00 L17.32 2.00 L17.32 -2.00 ZM0.00 -4.00 L-3.46 -2.00 L-3.46 2.00 L0.00 4.00 L3.46 2.00 L3.46 -2.00 ZM13.86 12.00 L10.39 14.00 L10.39 18.00 L13.86 20.00 L17.32 18.00 L17.32 14.00 ZM0.00 12.00 L-3.46 14.00 L-3.46 18.00 L0.00 20.00 L3.46 18.00 L3.46 14.00 Z" stroke="#2400ff" stroke-opacity="0.706" stroke-width="0.8" fill="none" />
</pattern>
<pattern id="merit_pattern_hexagons_3" x="0.00" y="0.00" width="13.86" height="16.00" patternUnits="userSpaceOnUse" >
<path d="M6.93 2.00 L1.73 5.00 L1.73 11.00 L6.93 14.00 L12.12 11.00 L12.12 5.00 ZM13.86 -6.00 L8.66 -3.00 L8.66 3.00 L13.86 6.00 L19.05 3.00 L19.05 -3.00 ZM0.00 -6.00 L-5.20 -3.00 L-5.20 3.00 L0.00 6.00 L5.20 3.00 L5.20 -3.00 ZM13.86 10.00 L8.66 13.00 L8.66 19.00 L13.86 22.00 L19.05 19.00 L19.05 13.00 ZM0.00 10.00 L-5.20 13.00 L-5.20 19.00 L0.00 22.00 L5.20 19.00 L5.20 13.00 Z" stroke="#2400ff" stroke-opacity="0.706" stroke-width="0.8" fill="none" />
</pattern>
<pattern id="merit_pattern_hexagons_4" x="0.00" y="0.00" width="13.86" height="16.00" patternUnits="userSpaceOnUse" >
<path d="M6.93 0.00 L0.00 4.00 L0.00 12.00 L6.93 16.00 L13.86 12.00 L13.86 4.00 ZM13.86 -8.00 L6.93 -4.00 L6.93 4.00 L13.86 8.00 L20.78 4.00 L20.78 -4.00 ZM0.00 -8.00 L-6.93 -4.00 L-6.93 4.00 L0.00 8.00 L6.93 4.00 L6.93 -4.00 ZM13.86 8.00 L6.93 12.00 L6.93 20.00 L13.86 24.00 L20.78 20.00 L20.78 12.00 ZM0.00 8.00 L-6.93 12.00 L-6.93 20.00 L0.00 24.00 L6.93 20.00 L6.93 12.00 Z" stroke="#2400ff" stroke-opacity="0.706" stroke-width="0.8" fill="none" />
</pattern>
<pattern id="merit_pattern_hexagons_5" x="0.00" y="0.00" width="13.86" height="16.00" patternUnits="userSpaceOnUse" >
<path d="M6.93 -2.00 L-1.73 3.00 L-1.73 13.00 L6.93 18.00 L15.59 13.00 L15.59 3.00 ZM13.86 -10.00 L5.20 -5.00 L5.20 5.00 L13.86 10.00 L22.52 5.00 L22.52 -5.00 ZM0.00 -10.00 L-8.66 -5.00 L-8.66 5.00 L0.00 10.00 L8.66 5.00 L8.66 -5.00 ZM13.86 6.00 L5.20 11.00 L5.20 21.00 L13.86 26.00 L22.52 21.00 L22.52 11.00 ZM0.00 6.00 L-8.66 11.00 L-8.66 21.00 L0.00 26.00 L8.66 21.00 L8.66 11.00 Z" stroke="#2400ff" stroke-opacity="0.706" stroke-width="0.8" fill="none" />
</pattern>
<pattern id="merit_pattern_hexagons_6" x="0.00" y="0.00" width="13.86" height="16.00" patternUnits="userSpaceOnUse" >
<path d="M6.93 -4.00 L-3.46 2.00 L-3.46 14.00 L6.93 20.00 L17.32 14.00 L17.32 2.00 ZM13.86 -12.00 L3.46 -6.00 L3.46 6.00 L13.86 12.00 L24.25 6.00 L24.25 -6.00 ZM0.00 -12.00 L-10.39 -6.00 L-10.39 6.00 L0.00 12.00 L10.39 6.00 L10.39 -6.00 ZM13.86 4.00 L3.46 10.00 L3.46 22.00 L13.86 28.00 L24.25 22.00 L24.25 10.00 ZM0.00 4.00 L-10.39 10.00 L-10.39 22.00 L0.00 28.00 L10.39 22.00 L10.39 10.00 Z" stroke="#2400ff" stroke-opacity="0.706" stroke-width="0.8" fill="none" />
</pattern>
<filter id="merit_filter_clean_outline" >
<feMorphology in="SourceAlpha" result="DILATED"  operator="dilate" radius="2 2" />
<feFlood result="COLOR"  flood-color="#141414" flood-opacity="0.7843137254901961" />
<feComposite in="COLOR" in2="DILATED" result="OUTLINE"  operator="in" k1="0" k2="0" k3="0" k4="0" />
<feDropShadow in="OUTLINE" result="SHADOWED_OUTLINE" dx="0.618000" dy="1.000000" stdDeviation="0.5" flood-color="#ffffff" flood-opacity="0.780" />
<feMerge>
<feMergeNode in="SHADOWED_OUTLINE"/>
<feMergeNode in="SourceGraphic"/>
</feMerge>
</filter>
<filter id="merit_filter_blurry_outline" filterUnits="userSpaceOnUse" >
<feDropShadow dx="-1" dy="-1" stdDeviation="0.5" flood-color="#ffff00" flood-opacity="0.471" />
<feDropShadow dx="-1" dy="1" stdDeviation="0.5" flood-color="#ffff00" flood-opacity="0.471" />
<feDropShadow dx="1" dy="-1" stdDeviation="0.5" flood-color="#ffff00" flood-opacity="0.471" />
<feDropShadow dx="1" dy="1" stdDeviation="0.5" flood-color="#ffff00" flood-opacity="0.471" />
</filter>
</defs>
<rect x="-32.00" y="-32.00" width="800.00" height="400.00" rx="3.00" ry="3.00" fill="#1e1405" fill-opacity="0.502" />
<rect x="0.00" y="0.00" width="143.20" height="60.00" rx="2.00" ry="2.00" fill="#000000" fill-opacity="1.000" />
<rect x="0.00" y="0.00" width="143.20" height="60.00" rx="2.00" ry="2.00" fill="url(#merit_pattern_nothing)" />
<rect x="151.20" y="0.00" width="176.00" height="60.00" rx="2.00" ry="2.00" fill="#494949" fill-opacity="1.000" />
<rect x="151.20" y="0.00" width="176.00" height="60.00" rx="2.00" ry="2.00" fill="url(#merit_pattern_hexagons_2)" />
<rect x="335.20" y="0.00" width="157.60" height="60.00" rx="2.00" ry="2.00" fill="#929292" fill-opacity="1.000" />
<rect x="335.20" y="0.00" width="157.60" height="60.00" rx="2.00" ry="2.00" fill="url(#merit_pattern_hexagons_4)" />
<rect x="500.80" y="0.00" width="102.40" height="60.00" rx="2.00" ry="2.00" fill="#dbdbdb" fill-opacity="1.000" />
<rect x="500.80" y="0.00" width="102.40" height="60.00" rx="2.00" ry="2.00" fill="url(#merit_pattern_hexagons_5)" />
<rect x="611.20" y="0.00" width="124.80" height="60.00" rx="2.00" ry="2.00" fill="#ffffff" fill-opacity="1.000" />
<rect x="611.20" y="0.00" width="124.80" height="60.00" rx="2.00" ry="2.00" fill="url(#merit_pattern_hexagons_6)" />
<line x1="377.20" y1="0.00" x2="377.20" y2="60.00" stroke="#3232ff" stroke-width="4" stroke-dasharray="6.472 4" filter="url(#merit_filter_blurry_outline)" />
<text x="16.00" y="30.00" style="clip-path: url(#clipProposal0)" stroke="#dcc8c8" stroke-opacity="0.784" fill="#dcc8c8" fill-opacity="0.784" font-size="1.4em" font-family="OpenDyslexic Nerd Font, sans-serif" dominant-baseline="middle" filter="url(#merit_filter_clean_outline)" >Une promenade sur la face cachée de la Lune<title>Une promenade sur la face cachée de la Lune</title></text>
<text x="71.60" y="60.00" fill="#dcc8c8" fill-opacity="0.784" stroke="none" font-size="1.0em" font-family="OpenDyslexic Nerd Font, sans-serif" text-anchor="middle" dominant-baseline="middle" filter="url(#merit_filter_clean_outline)" >8</text>
<text x="239.20" y="60.00" fill="#dcc8c8" fill-opacity="0.784" stroke="none" font-size="1.0em" font-family="OpenDyslexic Nerd Font, sans-serif" text-anchor="middle" dominant-baseline="middle" filter="url(#merit_filter_clean_outline)" >10</text>
<text x="414.00" y="60.00" fill="#dcc8c8" fill-opacity="0.784" stroke="none" font-size="1.0em" font-family="OpenDyslexic Nerd Font, sans-serif" text-anchor="middle" dominant-baseline="middle" filter="url(#merit_filter_clean_outline)" >9</text>
<text x="552.00" y="60.00" fill="#dcc8c8" fill-opacity="0.784" stroke="none" font-size="1.0em" font-family="OpenDyslexic Nerd Font, sans-serif" text-anchor="middle" dominant-baseline="middle" filter="url(#merit_filter_clean_outline)" >6</text>
<text x="673.60" y="60.00" fill="#dcc8c8" fill-opacity="0.784" stroke="none" font-size="1.0em" font-family="OpenDyslexic Nerd Font, sans-serif" text-anchor="middle" dominant-baseline="middle" filter="url(#merit_filter_clean_outline)" >7</text>
<rect x="0.00" y="92.00" width="88.00" height="60.00" rx="2.00" ry="2.00" fill="#000000" fill-opacity="1.000" />
<rect x="0.00" y="92.00" width="88.00" height="60.00" rx="2.00" ry="2.00" fill="url(#merit_pattern_nothing)" />
<rect x="96.00" y="92.00" width="65.60" height="60.00" rx="2.00" ry="2.00" fill="#242424" fill-opacity="1.000" />
<rect x="96.00" y="92.00" width="65.60" height="60.00" rx="2.00" ry="2.00" fill="url(#merit_pattern_hexagons_1)" />
<rect x="169.60" y="92.00" width="176.00" height="60.00" rx="2.00" ry="2.00" fill="#494949" fill-opacity="1.000" />
<rect x="169.60" y="92.00" width="176.00" height="60.00" rx="2.00" ry="2.00" fill="url(#merit_pattern_hexagons_2)" />
<rect x="353.60" y="92.00" width="84.00" height="60.00" rx="2.00" ry="2.00" fill="#6d6d6d" fill-opacity="1.000" />
<rect x="353.60" y="92.00" width="84.00" height="60.00" rx="2.00" ry="2.00" fill="url(#merit_pattern_hexagons_3)" />
<rect x="445.60" y="92.00" width="84.00" height="60.00" rx="2.00" ry="2.00" fill="#929292" fill-opacity="1.000" />
<rect x="445.60" y="92.00" width="84.00" height="60.00" rx="2.00" ry="2.00" fill="url(#merit_pattern_hexagons_4)" />
<rect x="537.60" y="92.00" width="47.20" height="60.00" rx="2.00" ry="2.00" fill="#dbdbdb" fill-opacity="1.000" />
<rect x="537.60" y="92.00" width="47.20" height="60.00" rx="2.00" ry="2.00" fill="url(#merit_pattern_hexagons_5)" />
<rect x="592.80" y="92.00" width="143.20" height="60.00" rx="2.00" ry="2.00" fill="#ffffff" fill-opacity="1.000" />
<rect x="592.80" y="92.00" width="143.20" height="60.00" rx="2.00" ry="2.00" fill="url(#merit_pattern_hexagons_6)" />
<line x1="377.20" y1="92.00" x2="377.20" y2="152.00" stroke="#3232ff" stroke-width="4" stroke-dasharray="6.472 4" filter="url(#merit_filter_blurry_outline)" />
<text x="16.00" y="122.00" style="clip-path: url(#clipProposal1)" stroke="#dcc8c8" stroke-opacity="0.784" fill="#dcc8c8" fill-opacity="0.784" font-size="1.4em" font-family="OpenDyslexic Nerd Font, sans-serif" dominant-baseline="middle" filter="url(#merit_filter_clean_outline)" >Une randonnée dans les monts de la Chartreuse<title>Une randonnée dans les monts de la Chartreuse</title></text>
<text x="44.00" y="152.00" fill="#dcc8c8" fill-opacity="0.784" stroke="none" font-size="1.0em" font-family="OpenDyslexic Nerd Font, sans-serif" text-anchor="middle" dominant-baseline="middle" filter="url(#merit_filter_clean_outline)" >5</text>
<text x="128.80" y="152.00" fill="#dcc8c8" fill-opacity="0.784" stroke="none" font-size="1.0em" font-family="OpenDyslexic Nerd Font, sans-serif" text-anchor="middle" dominant-baseline="middle" filter="url(#merit_filter_clean_outline)" >4</text>
<text x="257.60" y="152.00" fill="#dcc8c8" fill-opacity="0.784" stroke="none" font-size="1.0em" font-family="OpenDyslexic Nerd Font, sans-serif" text-anchor="middle" dominant-baseline="middle" filter="url(#merit_filter_clean_outline)" >10</text>
<text x="395.60" y="152.00" fill="#dcc8c8" fill-opacity="0.784" stroke="none" font-size="1.0em" font-family="OpenDyslexic Nerd Font, sans-serif" text-anchor="middle" dominant-baseline="middle" filter="url(#merit_filter_clean_outline)" >5</text>
<text x="487.60" y="152.00" fill="#dcc8c8" fill-opacity="0.784" stroke="none" font-size="1.0em" font-family="OpenDyslexic Nerd Font, sans-serif" text-anchor="middle" dominant-baseline="middle" filter="url(#merit_filter_clean_outline)" >5</text>
<text x="561.20" y="152.00" fill="#dcc8c8" fill-opacity="0.784" stroke="none" font-size="1.0em" font-family="OpenDyslexic Nerd Font, sans-serif" text-anchor="middle" dominant-baseline="middle" filter="url(#merit_filter_clean_outline)" >3</text>
<text x="664.40" y="152.00" fill="#dcc8c8" fill-opacity="0.784" stroke="none" font-size="1.0em" font-family="OpenDyslexic Nerd Font, sans-serif" text-anchor="middle" dominant-baseline="middle" filter="url(#merit_filter_clean_outline)" >8</text>
<rect x="0.00" y="184.00" width="345.60" height="60.00" rx="2.00" ry="2.00" fill="#000000" fill-opacity="1.000" />
<rect x="0.00" y="184.00" width="345.60" height="60.00" rx="2.00" ry="2.00" fill="url(#merit_pattern_nothing)" />
<rect x="353.60" y="184.00" width="84.00" height="60.00" rx="2.00" ry="2.00" fill="#242424" fill-opacity="1.000" />
<rect x="353.60" y="184.00" width="84.00" height="60.00" rx="2.00" ry="2.00" fill="url(#merit_pattern_hexagons_1)" />
<rect x="445.60" y="184.00" width="139.20" height="60.00" rx="2.00" ry="2.00" fill="#494949" fill-opacity="1.000" />
<rect x="445.60" y="184.00" width="139.20" height="60.00" rx="2.00" ry="2.00" fill="url(#merit_pattern_hexagons_2)" />
<rect x="592.80" y="184.00" width="47.20" height="60.00" rx="2.00" ry="2.00" fill="#6d6d6d" fill-opacity="1.000" />
<rect x="592.80" y="184.00" width="47.20" height="60.00" rx="2.00" ry="2.00" fill="url(#merit_pattern_hexagons_3)" />
<rect x="648.00" y="184.00" width="47.20" height="60.00" rx="2.00" ry="2.00" fill="#dbdbdb" fill-opacity="1.000" />
<rect x="648.00" y="184.00" width="47.20" height="60.00" rx="2.00" ry="2.00" fill="url(#merit_pattern_hexagons_5)" />
<rect x="703.20" y="184.00" width="32.80" height="60.00" rx="2.00" ry="2.00" fill="#ffffff" fill-opacity="1.000" />
<rect x="703.20" y="184.00" width="32.80" height="60.00" rx="2.00" ry="2.00" fill="url(#merit_pattern_hexagons_6)" />
<line x1="377.20" y1="184.00" x2="377.20" y2="244.00" stroke="#3232ff" stroke-width="4" stroke-dasharray="6.472 4" filter="url(#merit_filter_blurry_outline)" />
<text x="16.00" y="214.00" style="clip-path: url(#clipProposal2)" stroke="#dcc8c8" stroke-opacity="0.784" fill="#dcc8c8" fill-opacity="0.784" font-size="1.4em" font-family="OpenDyslexic Nerd Font, sans-serif" dominant-baseline="middle" filter="url(#merit_filter_clean_outline)" >Un crossfit dans les égouts de Paris<title>Un crossfit dans les égouts de Paris</title></text>
<text x="172.80" y="244.00" fill="#dcc8c8" fill-opacity="0.784" stroke="none" font-size="1.0em" font-family="OpenDyslexic Nerd Font, sans-serif" text-anchor="middle" dominant-baseline="middle" filter="url(#merit_filter_clean_outline)" >19</text>
<text x="395.60" y="244.00" fill="#dcc8c8" fill-opacity="0.784" stroke="none" font-size="1.0em" font-family="OpenDyslexic Nerd Font, sans-serif" text-anchor="middle" dominant-baseline="middle" filter="url(#merit_filter_clean_outline)" >5</text>
<text x="515.20" y="244.00" fill="#dcc8c8" fill-opacity="0.784" stroke="none" font-size="1.0em" font-family="OpenDyslexic Nerd Font, sans-serif" text-anchor="middle" dominant-baseline="middle" filter="url(#merit_filter_clean_outline)" >8</text>
<text x="616.40" y="244.00" fill="#dcc8c8" fill-opacity="0.784" stroke="none" font-size="1.0em" font-family="OpenDyslexic Nerd Font, sans-serif" text-anchor="middle" dominant-baseline="middle" filter="url(#merit_filter_clean_outline)" >3</text>
<text x="671.60" y="244.00" fill="#dcc8c8" fill-opacity="0.784" stroke="none" font-size="1.0em" font-family="OpenDyslexic Nerd Font, sans-serif" text-anchor="middle" dominant-baseline="middle" filter="url(#merit_filter_clean_outline)" >3</text>
<text x="719.60" y="244.00" fill="#dcc8c8" fill-opacity="0.784" stroke="none" font-size="1.0em" font-family="OpenDyslexic Nerd Font, sans-serif" text-anchor="middle" dominant-baseline="middle" filter="url(#merit_filter_clean_outline)" >2</text>
<rect x="0.00" y="276.00" width="695.20" height="60.00" rx="2.00" ry="2.00" fill="#000000" fill-opacity="1.000" />
<rect x="0.00" y="276.00" width="695.20" height="60.00" rx="2.00" ry="2.00" fill="url(#merit_pattern_nothing)" />
<rect x="703.20" y="276.00" width="32.80" height="60.00" rx="2.00" ry="2.00" fill="#ffffff" fill-opacity="1.000" />
<rect x="703.20" y="276.00" width="32.80" height="60.00" rx="2.00" ry="2.00" fill="url(#merit_pattern_hexagons_6)" />
<line x1="377.20" y1="276.00" x2="377.20" y2="336.00" stroke="#3232ff" stroke-width="4" stroke-dasharray="6.472 4" filter="url(#merit_filter_blurry_outline)" />
<text x="16.00" y="306.00" style="clip-path: url(#clipProposal3)" stroke="#dcc8c8" stroke-opacity="0.784" fill="#dcc8c8" fill-opacity="0.784" font-size="1.4em" font-family="OpenDyslexic Nerd Font, sans-serif" dominant-baseline="middle" filter="url(#merit_filter_clean_outline)" >Une baignade sur une plage nudiste avec Patrick Bruel, Morandini &amp; Depardieu<title>Une baignade sur une plage nudiste avec Patrick Bruel, Morandini &amp; Depardieu</title></text>
<text x="347.60" y="336.00" fill="#dcc8c8" fill-opacity="0.784" stroke="none" font-size="1.0em" font-family="OpenDyslexic Nerd Font, sans-serif" text-anchor="middle" dominant-baseline="middle" filter="url(#merit_filter_clean_outline)" >38</text>
<text x="719.60" y="336.00" fill="#dcc8c8" fill-opacity="0.784" stroke="none" font-size="1.0em" font-family="OpenDyslexic Nerd Font, sans-serif" text-anchor="middle" dominant-baseline="middle" filter="url(#merit_filter_clean_outline)" >2</text>
</svg>