<?xml version="1.0" encoding="UTF-8"?>
<svg width="512.00" height="190.00"
     viewBox="-16.00 -16.00 544.00 222.00"
     overflow="hidden"
     xmlns="http://www.w3.org/2000/svg"
     xmlns:xlink="http://www.w3.org/1999/xlink">
<defs>
<clipPath id="clipProposal0" ><rect x="0.00" y="0.00" width="512.00" height="52.67" />
</clipPath>
<clipPath id="clipProposal1" ><rect x="0.00" y="68.67" width="512.00" height="52.67" />
</clipPath>
<clipPath id="clipProposal2" ><rect x="0.00" y="137.33" width="512.00" height="52.67" />
</clipPath>
</defs>
<rect x="-16.00" y="-16.00" width="544.00" height="222.00" rx="12.00" ry="12.00" fill="#ffffff" />
<rect x="0.00" y="0.00" width="146.29" height="52.67" rx="6.00" ry="6.00" fill="#df3222" />
<rect x="146.29" y="0.00" width="0.00" height="52.67" rx="6.00" ry="6.00" fill="#fab001" />
<rect x="146.29" y="0.00" width="109.71" height="52.67" rx="6.00" ry="6.00" fill="#7bbd3e" />
<rect x="256.00" y="0.00" width="256.00" height="52.67" rx="6.00" ry="6.00" fill="#017a36" />
<line x1="256.00" y1="0.00" x2="256.00" y2="52.67" stroke="#010101" stroke-width="4" stroke-dasharray="6.472 4" />
<text x="12.00" y="26.33" style="stroke:#ffffff; fill:#ffffff; clip-path: url(#clipProposal0)" stroke-width="5" font-size="1.3em" dominant-baseline="middle" >Alice the wonderful napping kangaroo 🦘 of the Æther</text>
<text x="12.00" y="26.33" style="stroke:#000000; clip-path: url(#clipProposal0)" font-size="1.3em" dominant-baseline="middle" >Alice the wonderful napping kangaroo 🦘 of the Æther<title>Alice the wonderful napping kangaroo 🦘 of the Æther</title>
</text>
<rect x="0.00" y="68.67" width="182.86" height="52.67" rx="6.00" ry="6.00" fill="#df3222" />
<rect x="182.86" y="68.67" width="219.43" height="52.67" rx="6.00" ry="6.00" fill="#fab001" />
<rect x="402.29" y="68.67" width="36.57" height="52.67" rx="6.00" ry="6.00" fill="#7bbd3e" />
<rect x="438.86" y="68.67" width="73.14" height="52.67" rx="6.00" ry="6.00" fill="#017a36" />
<line x1="256.00" y1="68.67" x2="256.00" y2="121.33" stroke="#010101" stroke-width="4" stroke-dasharray="6.472 4" />
<text x="12.00" y="95.00" style="stroke:#ffffff; fill:#ffffff; clip-path: url(#clipProposal1)" stroke-width="5" font-size="1.3em" dominant-baseline="middle" >Dominique</text>
<text x="12.00" y="95.00" style="stroke:#000000; clip-path: url(#clipProposal1)" font-size="1.3em" dominant-baseline="middle" >Dominique<title>Dominique</title>
</text>
<rect x="0.00" y="137.33" width="109.71" height="52.67" rx="6.00" ry="6.00" fill="#df3222" />
<rect x="109.71" y="137.33" width="109.71" height="52.67" rx="6.00" ry="6.00" fill="#fab001" />
<rect x="219.43" y="137.33" width="73.14" height="52.67" rx="6.00" ry="6.00" fill="#7bbd3e" />
<rect x="292.57" y="137.33" width="219.43" height="52.67" rx="6.00" ry="6.00" fill="#017a36" />
<line x1="256.00" y1="137.33" x2="256.00" y2="190.00" stroke="#010101" stroke-width="4" stroke-dasharray="6.472 4" />
<text x="12.00" y="163.67" style="stroke:#ffffff; fill:#ffffff; clip-path: url(#clipProposal2)" stroke-width="5" font-size="1.3em" dominant-baseline="middle" >Théo 🗳</text>
<text x="12.00" y="163.67" style="stroke:#000000; clip-path: url(#clipProposal2)" font-size="1.3em" dominant-baseline="middle" >Théo 🗳<title>Théo 🗳</title>
</text>
</svg>
